<?xml version="1.0" encoding="UTF-8" standalone="no"?>
<svg width="240px" height="240px" viewBox="0 0 240 240" version="1.1" xmlns="http://www.w3.org/2000/svg" xmlns:xlink="http://www.w3.org/1999/xlink" xmlns:sketch="http://www.bohemiancoding.com/sketch/ns">
    <title>Sample QR</title>
    <description>Created with Sketch (http://www.bohemiancoding.com/sketch)</description>
    <defs></defs>
    <g id="Page-1" stroke="none" stroke-width="1" fill="none" fill-rule="evenodd" sketch:type="MSPage">
        <g id="Sample-QR" sketch:type="MSArtboardGroup">
            <g id="Group-+-Outline-+-SQRL" sketch:type="MSLayerGroup" transform="translate(7.000000, 6.000000)">
                <g id="Group" fill="#000000" sketch:type="MSShapeGroup">
                    <path d="M8.0085154,0 C3.58553448,0 0,3.57805502 0,8.0085154 L0,55.9914846 C0,60.4144655 3.57805502,64 8.0085154,64 L55.9914846,64 C60.4144655,64 64,60.421945 64,55.9914846 L64,8.0085154 C64,3.58553448 60.421945,0 55.9914846,0 L8.0085154,0 Z M17.9932448,10 C13.5786976,10 10,13.5875585 10,17.9932448 L10,47.0067552 C10,51.4213024 13.5875585,55 17.9932448,55 L47.0067552,55 C51.4213024,55 55,51.4124415 55,47.0067552 L55,17.9932448 C55,13.5786976 51.4124415,10 47.0067552,10 L17.9932448,10 Z M32.5,46 C39.9558445,46 46,39.9558445 46,32.5 C46,25.0441555 39.9558445,19 32.5,19 C25.0441555,19 19,25.0441555 19,32.5 C19,39.9558445 25.0441555,46 32.5,46 Z M32.5,46" id="Rectangle-1"></path>
                    <path d="M8.0085154,164 C3.58553448,164 0,167.578055 0,172.008515 L0,219.991485 C0,224.414466 3.57805502,228 8.0085154,228 L55.9914846,228 C60.4144655,228 64,224.421945 64,219.991485 L64,172.008515 C64,167.585534 60.421945,164 55.9914846,164 L8.0085154,164 Z M17.9932448,174 C13.5786976,174 10,177.587559 10,181.993245 L10,211.006755 C10,215.421302 13.5875585,219 17.9932448,219 L47.0067552,219 C51.4213024,219 55,215.412441 55,211.006755 L55,181.993245 C55,177.578698 51.4124415,174 47.0067552,174 L17.9932448,174 Z M32.5,210 C39.9558445,210 46,203.955844 46,196.5 C46,189.044156 39.9558445,183 32.5,183 C25.0441555,183 19,189.044156 19,196.5 C19,203.955844 25.0441555,210 32.5,210 Z M32.5,210" id="Rectangle-1"></path>
                    <path d="M171.008515,0 C166.585534,0 163,3.57805502 163,8.0085154 L163,55.9914846 C163,60.4144655 166.578055,64 171.008515,64 L218.991485,64 C223.414466,64 227,60.421945 227,55.9914846 L227,8.0085154 C227,3.58553448 223.421945,0 218.991485,0 L171.008515,0 Z M180.993245,10 C176.578698,10 173,13.5875585 173,17.9932448 L173,47.0067552 C173,51.4213024 176.587559,55 180.993245,55 L210.006755,55 C214.421302,55 218,51.4124415 218,47.0067552 L218,17.9932448 C218,13.5786976 214.412441,10 210.006755,10 L180.993245,10 Z M195.5,46 C202.955844,46 209,39.9558445 209,32.5 C209,25.0441555 202.955844,19 195.5,19 C188.044156,19 182,25.0441555 182,32.5 C182,39.9558445 188.044156,46 195.5,46 Z M195.5,46" id="Rectangle-1"></path>
                    <circle d="M87,10 C89.7614239,10 92,7.76142389 92,5 C92,2.23857611 89.7614239,0 87,0 C84.2385761,0 82,2.23857611 82,5 C82,7.76142389 84.2385761,10 87,10 Z M87,10" id="Oval-4" cx="87" cy="5" r="5"></circle>
                    <circle d="M96,10 C98.7614239,10 101,7.76142389 101,5 C101,2.23857611 98.7614239,0 96,0 C93.2385761,0 91,2.23857611 91,5 C91,7.76142389 93.2385761,10 96,10 Z M96,10" id="Oval-4" cx="96" cy="5" r="5"></circle>
                    <circle d="M114,19 C116.761424,19 119,16.7614239 119,14 C119,11.2385761 116.761424,9 114,9 C111.238576,9 109,11.2385761 109,14 C109,16.7614239 111.238576,19 114,19 Z M114,19" id="Oval-4" cx="114" cy="14" r="5"></circle>
                    <circle d="M114,10 C116.761424,10 119,7.76142389 119,5 C119,2.23857611 116.761424,0 114,0 C111.238576,0 109,2.23857611 109,5 C109,7.76142389 111.238576,10 114,10 Z M114,10" id="Oval-4" cx="114" cy="5" r="5"></circle>
                    <circle d="M132,10 C134.761424,10 137,7.76142389 137,5 C137,2.23857611 134.761424,0 132,0 C129.238576,0 127,2.23857611 127,5 C127,7.76142389 129.238576,10 132,10 Z M132,10" id="Oval-4" cx="132" cy="5" r="5"></circle>
                    <circle d="M78,19 C80.7614239,19 83,16.7614239 83,14 C83,11.2385761 80.7614239,9 78,9 C75.2385761,9 73,11.2385761 73,14 C73,16.7614239 75.2385761,19 78,19 Z M78,19" id="Oval-4" cx="78" cy="14" r="5"></circle>
                    <circle d="M132,37 C134.761424,37 137,34.7614239 137,32 C137,29.2385761 134.761424,27 132,27 C129.238576,27 127,29.2385761 127,32 C127,34.7614239 129.238576,37 132,37 Z M132,37" id="Oval-4" cx="132" cy="32" r="5"></circle>
                    <circle d="M141,37 C143.761424,37 146,34.7614239 146,32 C146,29.2385761 143.761424,27 141,27 C138.238576,27 136,29.2385761 136,32 C136,34.7614239 138.238576,37 141,37 Z M141,37" id="Oval-4" cx="141" cy="32" r="5"></circle>
                    <circle d="M150,37 C152.761424,37 155,34.7614239 155,32 C155,29.2385761 152.761424,27 150,27 C147.238576,27 145,29.2385761 145,32 C145,34.7614239 147.238576,37 150,37 Z M150,37" id="Oval-4" cx="150" cy="32" r="5"></circle>
                    <circle d="M150,46 C152.761424,46 155,43.7614239 155,41 C155,38.2385761 152.761424,36 150,36 C147.238576,36 145,38.2385761 145,41 C145,43.7614239 147.238576,46 150,46 Z M150,46" id="Oval-4" cx="150" cy="41" r="5"></circle>
                    <circle d="M150,65 C152.761424,65 155,62.7614239 155,60 C155,57.2385761 152.761424,55 150,55 C147.238576,55 145,57.2385761 145,60 C145,62.7614239 147.238576,65 150,65 Z M150,65" id="Oval-4" cx="150" cy="60" r="5"></circle>
                    <circle d="M78,65 C80.7614239,65 83,62.7614239 83,60 C83,57.2385761 80.7614239,55 78,55 C75.2385761,55 73,57.2385761 73,60 C73,62.7614239 75.2385761,65 78,65 Z M78,65" id="Oval-4" cx="78" cy="60" r="5"></circle>
                    <circle d="M141,74 C143.761424,74 146,71.7614239 146,69 C146,66.2385761 143.761424,64 141,64 C138.238576,64 136,66.2385761 136,69 C136,71.7614239 138.238576,74 141,74 Z M141,74" id="Oval-4" cx="141" cy="69" r="5"></circle>
                    <circle d="M123,74 C125.761424,74 128,71.7614239 128,69 C128,66.2385761 125.761424,64 123,64 C120.238576,64 118,66.2385761 118,69 C118,71.7614239 120.238576,74 123,74 Z M123,74" id="Oval-4" cx="123" cy="69" r="5"></circle>
                    <circle d="M132,74 C134.761424,74 137,71.7614239 137,69 C137,66.2385761 134.761424,64 132,64 C129.238576,64 127,66.2385761 127,69 C127,71.7614239 129.238576,74 132,74 Z M132,74" id="Oval-4" cx="132" cy="69" r="5"></circle>
                    <circle d="M5,83 C7.76142389,83 10,80.7614239 10,78 C10,75.2385761 7.76142389,73 5,73 C2.23857611,73 0,75.2385761 0,78 C0,80.7614239 2.23857611,83 5,83 Z M5,83" id="Oval-4" cx="5" cy="78" r="5"></circle>
                    <circle d="M114,83 C116.761424,83 119,80.7614239 119,78 C119,75.2385761 116.761424,73 114,73 C111.238576,73 109,75.2385761 109,78 C109,80.7614239 111.238576,83 114,83 Z M114,83" id="Oval-4" cx="114" cy="78" r="5"></circle>
                    <circle d="M96,83 C98.7614239,83 101,80.7614239 101,78 C101,75.2385761 98.7614239,73 96,73 C93.2385761,73 91,75.2385761 91,78 C91,80.7614239 93.2385761,83 96,83 Z M96,83" id="Oval-4" cx="96" cy="78" r="5"></circle>
                    <circle d="M78,83 C80.7614239,83 83,80.7614239 83,78 C83,75.2385761 80.7614239,73 78,73 C75.2385761,73 73,75.2385761 73,78 C73,80.7614239 75.2385761,83 78,83 Z M78,83" id="Oval-4" cx="78" cy="78" r="5"></circle>
                    <circle d="M69,83 C71.7614239,83 74,80.7614239 74,78 C74,75.2385761 71.7614239,73 69,73 C66.2385761,73 64,75.2385761 64,78 C64,80.7614239 66.2385761,83 69,83 Z M69,83" id="Oval-4" cx="69" cy="78" r="5"></circle>
                    <circle d="M59,83 C61.7614239,83 64,80.7614239 64,78 C64,75.2385761 61.7614239,73 59,73 C56.2385761,73 54,75.2385761 54,78 C54,80.7614239 56.2385761,83 59,83 Z M59,83" id="Oval-4" cx="59" cy="78" r="5"></circle>
                    <circle d="M41,83 C43.7614239,83 46,80.7614239 46,78 C46,75.2385761 43.7614239,73 41,73 C38.2385761,73 36,75.2385761 36,78 C36,80.7614239 38.2385761,83 41,83 Z M41,83" id="Oval-4" cx="41" cy="78" r="5"></circle>
                    <circle d="M32,83 C34.7614239,83 37,80.7614239 37,78 C37,75.2385761 34.7614239,73 32,73 C29.2385761,73 27,75.2385761 27,78 C27,80.7614239 29.2385761,83 32,83 Z M32,83" id="Oval-4" cx="32" cy="78" r="5"></circle>
                    <circle d="M50,83 C52.7614239,83 55,80.7614239 55,78 C55,75.2385761 52.7614239,73 50,73 C47.2385761,73 45,75.2385761 45,78 C45,80.7614239 47.2385761,83 50,83 Z M50,83" id="Oval-4" cx="50" cy="78" r="5"></circle>
                    <circle d="M141,83 C143.761424,83 146,80.7614239 146,78 C146,75.2385761 143.761424,73 141,73 C138.238576,73 136,75.2385761 136,78 C136,80.7614239 138.238576,83 141,83 Z M141,83" id="Oval-4" cx="141" cy="78" r="5"></circle>
                    <circle d="M223,83 C225.761424,83 228,80.7614239 228,78 C228,75.2385761 225.761424,73 223,73 C220.238576,73 218,75.2385761 218,78 C218,80.7614239 220.238576,83 223,83 Z M223,83" id="Oval-4" cx="223" cy="78" r="5"></circle>
                    <circle d="M214,83 C216.761424,83 219,80.7614239 219,78 C219,75.2385761 216.761424,73 214,73 C211.238576,73 209,75.2385761 209,78 C209,80.7614239 211.238576,83 214,83 Z M214,83" id="Oval-4" cx="214" cy="78" r="5"></circle>
                    <circle d="M205,83 C207.761424,83 210,80.7614239 210,78 C210,75.2385761 207.761424,73 205,73 C202.238576,73 200,75.2385761 200,78 C200,80.7614239 202.238576,83 205,83 Z M205,83" id="Oval-4" cx="205" cy="78" r="5"></circle>
                    <circle d="M187,83 C189.761424,83 192,80.7614239 192,78 C192,75.2385761 189.761424,73 187,73 C184.238576,73 182,75.2385761 182,78 C182,80.7614239 184.238576,83 187,83 Z M187,83" id="Oval-4" cx="187" cy="78" r="5"></circle>
                    <circle d="M159,83 C161.761424,83 164,80.7614239 164,78 C164,75.2385761 161.761424,73 159,73 C156.238576,73 154,75.2385761 154,78 C154,80.7614239 156.238576,83 159,83 Z M159,83" id="Oval-4" cx="159" cy="78" r="5"></circle>
                    <circle d="M5,92 C7.76142389,92 10,89.7614239 10,87 C10,84.2385761 7.76142389,82 5,82 C2.23857611,82 0,84.2385761 0,87 C0,89.7614239 2.23857611,92 5,92 Z M5,92" id="Oval-4" cx="5" cy="87" r="5"></circle>
                    <circle d="M114,101 C116.761424,101 119,98.7614239 119,96 C119,93.2385761 116.761424,91 114,91 C111.238576,91 109,93.2385761 109,96 C109,98.7614239 111.238576,101 114,101 Z M114,101" id="Oval-4" cx="114" cy="96" r="5"></circle>
                    <circle d="M123,101 C125.761424,101 128,98.7614239 128,96 C128,93.2385761 125.761424,91 123,91 C120.238576,91 118,93.2385761 118,96 C118,98.7614239 120.238576,101 123,101 Z M123,101" id="Oval-4" cx="123" cy="96" r="5"></circle>
                    <circle d="M123,83 C125.761424,83 128,80.7614239 128,78 C128,75.2385761 125.761424,73 123,73 C120.238576,73 118,75.2385761 118,78 C118,80.7614239 120.238576,83 123,83 Z M123,83" id="Oval-4" cx="123" cy="78" r="5"></circle>
                    <circle d="M114,110 C116.761424,110 119,107.761424 119,105 C119,102.238576 116.761424,100 114,100 C111.238576,100 109,102.238576 109,105 C109,107.761424 111.238576,110 114,110 Z M114,110" id="Oval-4" cx="114" cy="105" r="5"></circle>
                    <circle d="M123,110 C125.761424,110 128,107.761424 128,105 C128,102.238576 125.761424,100 123,100 C120.238576,100 118,102.238576 118,105 C118,107.761424 120.238576,110 123,110 Z M123,110" id="Oval-4" cx="123" cy="105" r="5"></circle>
                    <circle d="M123,119 C125.761424,119 128,116.761424 128,114 C128,111.238576 125.761424,109 123,109 C120.238576,109 118,111.238576 118,114 C118,116.761424 120.238576,119 123,119 Z M123,119" id="Oval-4" cx="123" cy="114" r="5"></circle>
                    <circle d="M105,119 C107.761424,119 110,116.761424 110,114 C110,111.238576 107.761424,109 105,109 C102.238576,109 100,111.238576 100,114 C100,116.761424 102.238576,119 105,119 Z M105,119" id="Oval-4" cx="105" cy="114" r="5"></circle>
                    <circle d="M96,92 C98.7614239,92 101,89.7614239 101,87 C101,84.2385761 98.7614239,82 96,82 C93.2385761,82 91,84.2385761 91,87 C91,89.7614239 93.2385761,92 96,92 Z M96,92" id="Oval-4" cx="96" cy="87" r="5"></circle>
                    <circle d="M41,92 C43.7614239,92 46,89.7614239 46,87 C46,84.2385761 43.7614239,82 41,82 C38.2385761,82 36,84.2385761 36,87 C36,89.7614239 38.2385761,92 41,92 Z M41,92" id="Oval-4" cx="41" cy="87" r="5"></circle>
                    <circle d="M14,92 C16.7614239,92 19,89.7614239 19,87 C19,84.2385761 16.7614239,82 14,82 C11.2385761,82 9,84.2385761 9,87 C9,89.7614239 11.2385761,92 14,92 Z M14,92" id="Oval-4" cx="14" cy="87" r="5"></circle>
                    <circle d="M123,92 C125.761424,92 128,89.7614239 128,87 C128,84.2385761 125.761424,82 123,82 C120.238576,82 118,84.2385761 118,87 C118,89.7614239 120.238576,92 123,92 Z M123,92" id="Oval-4" cx="123" cy="87" r="5"></circle>
                    <circle d="M50,92 C52.7614239,92 55,89.7614239 55,87 C55,84.2385761 52.7614239,82 50,82 C47.2385761,82 45,84.2385761 45,87 C45,89.7614239 47.2385761,92 50,92 Z M50,92" id="Oval-4" cx="50" cy="87" r="5"></circle>
                    <circle d="M132,92 C134.761424,92 137,89.7614239 137,87 C137,84.2385761 134.761424,82 132,82 C129.238576,82 127,84.2385761 127,87 C127,89.7614239 129.238576,92 132,92 Z M132,92" id="Oval-4" cx="132" cy="87" r="5"></circle>
                    <circle d="M214,92 C216.761424,92 219,89.7614239 219,87 C219,84.2385761 216.761424,82 214,82 C211.238576,82 209,84.2385761 209,87 C209,89.7614239 211.238576,92 214,92 Z M214,92" id="Oval-4" cx="214" cy="87" r="5"></circle>
                    <circle d="M205,92 C207.761424,92 210,89.7614239 210,87 C210,84.2385761 207.761424,82 205,82 C202.238576,82 200,84.2385761 200,87 C200,89.7614239 202.238576,92 205,92 Z M205,92" id="Oval-4" cx="205" cy="87" r="5"></circle>
                    <circle d="M205,101 C207.761424,101 210,98.7614239 210,96 C210,93.2385761 207.761424,91 205,91 C202.238576,91 200,93.2385761 200,96 C200,98.7614239 202.238576,101 205,101 Z M205,101" id="Oval-4" cx="205" cy="96" r="5"></circle>
                    <circle d="M187,92 C189.761424,92 192,89.7614239 192,87 C192,84.2385761 189.761424,82 187,82 C184.238576,82 182,84.2385761 182,87 C182,89.7614239 184.238576,92 187,92 Z M187,92" id="Oval-4" cx="187" cy="87" r="5"></circle>
                    <circle d="M150,83 C152.761424,83 155,80.7614239 155,78 C155,75.2385761 152.761424,73 150,73 C147.238576,73 145,75.2385761 145,78 C145,80.7614239 147.238576,83 150,83 Z M150,83" id="Oval-4" cx="150" cy="78" r="5"></circle>
                    <circle d="M141,92 C143.761424,92 146,89.7614239 146,87 C146,84.2385761 143.761424,82 141,82 C138.238576,82 136,84.2385761 136,87 C136,89.7614239 138.238576,92 141,92 Z M141,92" id="Oval-4" cx="141" cy="87" r="5"></circle>
                    <circle d="M177,92 C179.761424,92 182,89.7614239 182,87 C182,84.2385761 179.761424,82 177,82 C174.238576,82 172,84.2385761 172,87 C172,89.7614239 174.238576,92 177,92 Z M177,92" id="Oval-4" cx="177" cy="87" r="5"></circle>
                    <circle d="M78,110 C80.7614239,110 83,107.761424 83,105 C83,102.238576 80.7614239,100 78,100 C75.2385761,100 73,102.238576 73,105 C73,107.761424 75.2385761,110 78,110 Z M78,110" id="Oval-4" cx="78" cy="105" r="5"></circle>
                    <circle d="M69,110 C71.7614239,110 74,107.761424 74,105 C74,102.238576 71.7614239,100 69,100 C66.2385761,100 64,102.238576 64,105 C64,107.761424 66.2385761,110 69,110 Z M69,110" id="Oval-4" cx="69" cy="105" r="5"></circle>
                    <circle d="M59,101 C61.7614239,101 64,98.7614239 64,96 C64,93.2385761 61.7614239,91 59,91 C56.2385761,91 54,93.2385761 54,96 C54,98.7614239 56.2385761,101 59,101 Z M59,101" id="Oval-4" cx="59" cy="96" r="5"></circle>
                    <circle d="M41,101 C43.7614239,101 46,98.7614239 46,96 C46,93.2385761 43.7614239,91 41,91 C38.2385761,91 36,93.2385761 36,96 C36,98.7614239 38.2385761,101 41,101 Z M41,101" id="Oval-4" cx="41" cy="96" r="5"></circle>
                    <circle d="M32,101 C34.7614239,101 37,98.7614239 37,96 C37,93.2385761 34.7614239,91 32,91 C29.2385761,91 27,93.2385761 27,96 C27,98.7614239 29.2385761,101 32,101 Z M32,101" id="Oval-4" cx="32" cy="96" r="5"></circle>
                    <circle d="M5,101 C7.76142389,101 10,98.7614239 10,96 C10,93.2385761 7.76142389,91 5,91 C2.23857611,91 0,93.2385761 0,96 C0,98.7614239 2.23857611,101 5,101 Z M5,101" id="Oval-4" cx="5" cy="96" r="5"></circle>
                    <circle d="M14,101 C16.7614239,101 19,98.7614239 19,96 C19,93.2385761 16.7614239,91 14,91 C11.2385761,91 9,93.2385761 9,96 C9,98.7614239 11.2385761,101 14,101 Z M14,101" id="Oval-4" cx="14" cy="96" r="5"></circle>
                    <circle d="M23,101 C25.7614239,101 28,98.7614239 28,96 C28,93.2385761 25.7614239,91 23,91 C20.2385761,91 18,93.2385761 18,96 C18,98.7614239 20.2385761,101 23,101 Z M23,101" id="Oval-4" cx="23" cy="96" r="5"></circle>
                    <circle d="M14,110 C16.7614239,110 19,107.761424 19,105 C19,102.238576 16.7614239,100 14,100 C11.2385761,100 9,102.238576 9,105 C9,107.761424 11.2385761,110 14,110 Z M14,110" id="Oval-4" cx="14" cy="105" r="5"></circle>
                    <circle d="M14,119 C16.7614239,119 19,116.761424 19,114 C19,111.238576 16.7614239,109 14,109 C11.2385761,109 9,111.238576 9,114 C9,116.761424 11.2385761,119 14,119 Z M14,119" id="Oval-4" cx="14" cy="114" r="5"></circle>
                    <circle d="M223,101 C225.761424,101 228,98.7614239 228,96 C228,93.2385761 225.761424,91 223,91 C220.238576,91 218,93.2385761 218,96 C218,98.7614239 220.238576,101 223,101 Z M223,101" id="Oval-4" cx="223" cy="96" r="5"></circle>
                    <circle d="M196,101 C198.761424,101 201,98.7614239 201,96 C201,93.2385761 198.761424,91 196,91 C193.238576,91 191,93.2385761 191,96 C191,98.7614239 193.238576,101 196,101 Z M196,101" id="Oval-4" cx="196" cy="96" r="5"></circle>
                    <circle d="M187,101 C189.761424,101 192,98.7614239 192,96 C192,93.2385761 189.761424,91 187,91 C184.238576,91 182,93.2385761 182,96 C182,98.7614239 184.238576,101 187,101 Z M187,101" id="Oval-4" cx="187" cy="96" r="5"></circle>
                    <circle d="M168,101 C170.761424,101 173,98.7614239 173,96 C173,93.2385761 170.761424,91 168,91 C165.238576,91 163,93.2385761 163,96 C163,98.7614239 165.238576,101 168,101 Z M168,101" id="Oval-4" cx="168" cy="96" r="5"></circle>
                    <circle d="M159,101 C161.761424,101 164,98.7614239 164,96 C164,93.2385761 161.761424,91 159,91 C156.238576,91 154,93.2385761 154,96 C154,98.7614239 156.238576,101 159,101 Z M159,101" id="Oval-4" cx="159" cy="96" r="5"></circle>
                    <circle d="M168,110 C170.761424,110 173,107.761424 173,105 C173,102.238576 170.761424,100 168,100 C165.238576,100 163,102.238576 163,105 C163,107.761424 165.238576,110 168,110 Z M168,110" id="Oval-4" cx="168" cy="105" r="5"></circle>
                    <circle d="M141,101 C143.761424,101 146,98.7614239 146,96 C146,93.2385761 143.761424,91 141,91 C138.238576,91 136,93.2385761 136,96 C136,98.7614239 138.238576,101 141,101 Z M141,101" id="Oval-4" cx="141" cy="96" r="5"></circle>
                    <circle d="M187,110 C189.761424,110 192,107.761424 192,105 C192,102.238576 189.761424,100 187,100 C184.238576,100 182,102.238576 182,105 C182,107.761424 184.238576,110 187,110 Z M187,110" id="Oval-4" cx="187" cy="105" r="5"></circle>
                    <circle d="M5,110 C7.76142389,110 10,107.761424 10,105 C10,102.238576 7.76142389,100 5,100 C2.23857611,100 0,102.238576 0,105 C0,107.761424 2.23857611,110 5,110 Z M5,110" id="Oval-4" cx="5" cy="105" r="5"></circle>
                    <circle d="M105,101 C107.761424,101 110,98.7614239 110,96 C110,93.2385761 107.761424,91 105,91 C102.238576,91 100,93.2385761 100,96 C100,98.7614239 102.238576,101 105,101 Z M105,101" id="Oval-4" cx="105" cy="96" r="5"></circle>
                    <circle d="M87,110 C89.7614239,110 92,107.761424 92,105 C92,102.238576 89.7614239,100 87,100 C84.2385761,100 82,102.238576 82,105 C82,107.761424 84.2385761,110 87,110 Z M87,110" id="Oval-4" cx="87" cy="105" r="5"></circle>
                    <circle d="M32,110 C34.7614239,110 37,107.761424 37,105 C37,102.238576 34.7614239,100 32,100 C29.2385761,100 27,102.238576 27,105 C27,107.761424 29.2385761,110 32,110 Z M32,110" id="Oval-4" cx="32" cy="105" r="5"></circle>
                    <circle d="M223,110 C225.761424,110 228,107.761424 228,105 C228,102.238576 225.761424,100 223,100 C220.238576,100 218,102.238576 218,105 C218,107.761424 220.238576,110 223,110 Z M223,110" id="Oval-4" cx="223" cy="105" r="5"></circle>
                    <circle d="M214,119 C216.761424,119 219,116.761424 219,114 C219,111.238576 216.761424,109 214,109 C211.238576,109 209,111.238576 209,114 C209,116.761424 211.238576,119 214,119 Z M214,119" id="Oval-4" cx="214" cy="114" r="5"></circle>
                    <circle d="M205,110 C207.761424,110 210,107.761424 210,105 C210,102.238576 207.761424,100 205,100 C202.238576,100 200,102.238576 200,105 C200,107.761424 202.238576,110 205,110 Z M205,110" id="Oval-4" cx="205" cy="105" r="5"></circle>
                    <circle d="M196,110 C198.761424,110 201,107.761424 201,105 C201,102.238576 198.761424,100 196,100 C193.238576,100 191,102.238576 191,105 C191,107.761424 193.238576,110 196,110 Z M196,110" id="Oval-4" cx="196" cy="105" r="5"></circle>
                    <circle d="M196,119 C198.761424,119 201,116.761424 201,114 C201,111.238576 198.761424,109 196,109 C193.238576,109 191,111.238576 191,114 C191,116.761424 193.238576,119 196,119 Z M196,119" id="Oval-4" cx="196" cy="114" r="5"></circle>
                    <circle d="M5,119 C7.76142389,119 10,116.761424 10,114 C10,111.238576 7.76142389,109 5,109 C2.23857611,109 0,111.238576 0,114 C0,116.761424 2.23857611,119 5,119 Z M5,119" id="Oval-4" cx="5" cy="114" r="5"></circle>
                    <circle d="M114,119 C116.761424,119 119,116.761424 119,114 C119,111.238576 116.761424,109 114,109 C111.238576,109 109,111.238576 109,114 C109,116.761424 111.238576,119 114,119 Z M114,119" id="Oval-4" cx="114" cy="114" r="5"></circle>
                    <circle d="M87,119 C89.7614239,119 92,116.761424 92,114 C92,111.238576 89.7614239,109 87,109 C84.2385761,109 82,111.238576 82,114 C82,116.761424 84.2385761,119 87,119 Z M87,119" id="Oval-4" cx="87" cy="114" r="5"></circle>
                    <circle d="M69,119 C71.7614239,119 74,116.761424 74,114 C74,111.238576 71.7614239,109 69,109 C66.2385761,109 64,111.238576 64,114 C64,116.761424 66.2385761,119 69,119 Z M69,119" id="Oval-4" cx="69" cy="114" r="5"></circle>
                    <circle d="M69,128 C71.7614239,128 74,125.761424 74,123 C74,120.238576 71.7614239,118 69,118 C66.2385761,118 64,120.238576 64,123 C64,125.761424 66.2385761,128 69,128 Z M69,128" id="Oval-4" cx="69" cy="123" r="5"></circle>
                    <circle d="M60,119 C62.7614239,119 65,116.761424 65,114 C65,111.238576 62.7614239,109 60,109 C57.2385761,109 55,111.238576 55,114 C55,116.761424 57.2385761,119 60,119 Z M60,119" id="Oval-4" cx="60" cy="114" r="5"></circle>
                    <circle d="M50,119 C52.7614239,119 55,116.761424 55,114 C55,111.238576 52.7614239,109 50,109 C47.2385761,109 45,111.238576 45,114 C45,116.761424 47.2385761,119 50,119 Z M50,119" id="Oval-4" cx="50" cy="114" r="5"></circle>
                    <circle d="M50,128 C52.7614239,128 55,125.761424 55,123 C55,120.238576 52.7614239,118 50,118 C47.2385761,118 45,120.238576 45,123 C45,125.761424 47.2385761,128 50,128 Z M50,128" id="Oval-4" cx="50" cy="123" r="5"></circle>
                    <circle d="M50,137 C52.7614239,137 55,134.761424 55,132 C55,129.238576 52.7614239,127 50,127 C47.2385761,127 45,129.238576 45,132 C45,134.761424 47.2385761,137 50,137 Z M50,137" id="Oval-4" cx="50" cy="132" r="5"></circle>
                    <circle d="M41,119 C43.7614239,119 46,116.761424 46,114 C46,111.238576 43.7614239,109 41,109 C38.2385761,109 36,111.238576 36,114 C36,116.761424 38.2385761,119 41,119 Z M41,119" id="Oval-4" cx="41" cy="114" r="5"></circle>
                    <circle d="M32,128 C34.7614239,128 37,125.761424 37,123 C37,120.238576 34.7614239,118 32,118 C29.2385761,118 27,120.238576 27,123 C27,125.761424 29.2385761,128 32,128 Z M32,128" id="Oval-4" cx="32" cy="123" r="5"></circle>
                    <circle d="M23,128 C25.7614239,128 28,125.761424 28,123 C28,120.238576 25.7614239,118 23,118 C20.2385761,118 18,120.238576 18,123 C18,125.761424 20.2385761,128 23,128 Z M23,128" id="Oval-4" cx="23" cy="123" r="5"></circle>
                    <circle d="M223,119 C225.761424,119 228,116.761424 228,114 C228,111.238576 225.761424,109 223,109 C220.238576,109 218,111.238576 218,114 C218,116.761424 220.238576,119 223,119 Z M223,119" id="Oval-4" cx="223" cy="114" r="5"></circle>
                    <circle d="M168,119 C170.761424,119 173,116.761424 173,114 C173,111.238576 170.761424,109 168,109 C165.238576,109 163,111.238576 163,114 C163,116.761424 165.238576,119 168,119 Z M168,119" id="Oval-4" cx="168" cy="114" r="5"></circle>
                    <circle d="M150,119 C152.761424,119 155,116.761424 155,114 C155,111.238576 152.761424,109 150,109 C147.238576,109 145,111.238576 145,114 C145,116.761424 147.238576,119 150,119 Z M150,119" id="Oval-4" cx="150" cy="114" r="5"></circle>
                    <circle d="M141,110 C143.761424,110 146,107.761424 146,105 C146,102.238576 143.761424,100 141,100 C138.238576,100 136,102.238576 136,105 C136,107.761424 138.238576,110 141,110 Z M141,110" id="Oval-4" cx="141" cy="105" r="5"></circle>
                    <circle d="M5,128 C7.76142389,128 10,125.761424 10,123 C10,120.238576 7.76142389,118 5,118 C2.23857611,118 0,120.238576 0,123 C0,125.761424 2.23857611,128 5,128 Z M5,128" id="Oval-4" cx="5" cy="123" r="5"></circle>
                    <circle d="M87,128 C89.7614239,128 92,125.761424 92,123 C92,120.238576 89.7614239,118 87,118 C84.2385761,118 82,120.238576 82,123 C82,125.761424 84.2385761,128 87,128 Z M87,128" id="Oval-4" cx="87" cy="123" r="5"></circle>
                    <circle d="M123,128 C125.761424,128 128,125.761424 128,123 C128,120.238576 125.761424,118 123,118 C120.238576,118 118,120.238576 118,123 C118,125.761424 120.238576,128 123,128 Z M123,128" id="Oval-4" cx="123" cy="123" r="5"></circle>
                    <circle d="M132,128 C134.761424,128 137,125.761424 137,123 C137,120.238576 134.761424,118 132,118 C129.238576,118 127,120.238576 127,123 C127,125.761424 129.238576,128 132,128 Z M132,128" id="Oval-4" cx="132" cy="123" r="5"></circle>
                    <circle d="M214,128 C216.761424,128 219,125.761424 219,123 C219,120.238576 216.761424,118 214,118 C211.238576,118 209,120.238576 209,123 C209,125.761424 211.238576,128 214,128 Z M214,128" id="Oval-4" cx="214" cy="123" r="5"></circle>
                    <circle d="M187,128 C189.761424,128 192,125.761424 192,123 C192,120.238576 189.761424,118 187,118 C184.238576,118 182,120.238576 182,123 C182,125.761424 184.238576,128 187,128 Z M187,128" id="Oval-4" cx="187" cy="123" r="5"></circle>
                    <circle d="M196,128 C198.761424,128 201,125.761424 201,123 C201,120.238576 198.761424,118 196,118 C193.238576,118 191,120.238576 191,123 C191,125.761424 193.238576,128 196,128 Z M196,128" id="Oval-4" cx="196" cy="123" r="5"></circle>
                    <circle d="M141,128 C143.761424,128 146,125.761424 146,123 C146,120.238576 143.761424,118 141,118 C138.238576,118 136,120.238576 136,123 C136,125.761424 138.238576,128 141,128 Z M141,128" id="Oval-4" cx="141" cy="123" r="5"></circle>
                    <circle d="M5,137 C7.76142389,137 10,134.761424 10,132 C10,129.238576 7.76142389,127 5,127 C2.23857611,127 0,129.238576 0,132 C0,134.761424 2.23857611,137 5,137 Z M5,137" id="Oval-4" cx="5" cy="132" r="5"></circle>
                    <circle d="M114,137 C116.761424,137 119,134.761424 119,132 C119,129.238576 116.761424,127 114,127 C111.238576,127 109,129.238576 109,132 C109,134.761424 111.238576,137 114,137 Z M114,137" id="Oval-4" cx="114" cy="132" r="5"></circle>
                    <circle d="M105,137 C107.761424,137 110,134.761424 110,132 C110,129.238576 107.761424,127 105,127 C102.238576,127 100,129.238576 100,132 C100,134.761424 102.238576,137 105,137 Z M105,137" id="Oval-4" cx="105" cy="132" r="5"></circle>
                    <circle d="M87,137 C89.7614239,137 92,134.761424 92,132 C92,129.238576 89.7614239,127 87,127 C84.2385761,127 82,129.238576 82,132 C82,134.761424 84.2385761,137 87,137 Z M87,137" id="Oval-4" cx="87" cy="132" r="5"></circle>
                    <circle d="M78,128 C80.7614239,128 83,125.761424 83,123 C83,120.238576 80.7614239,118 78,118 C75.2385761,118 73,120.238576 73,123 C73,125.761424 75.2385761,128 78,128 Z M78,128" id="Oval-4" cx="78" cy="123" r="5"></circle>
                    <circle d="M69,137 C71.7614239,137 74,134.761424 74,132 C74,129.238576 71.7614239,127 69,127 C66.2385761,127 64,129.238576 64,132 C64,134.761424 66.2385761,137 69,137 Z M69,137" id="Oval-4" cx="69" cy="132" r="5"></circle>
                    <circle d="M60,137 C62.7614239,137 65,134.761424 65,132 C65,129.238576 62.7614239,127 60,127 C57.2385761,127 55,129.238576 55,132 C55,134.761424 57.2385761,137 60,137 Z M60,137" id="Oval-4" cx="60" cy="132" r="5"></circle>
                    <circle d="M41,137 C43.7614239,137 46,134.761424 46,132 C46,129.238576 43.7614239,127 41,127 C38.2385761,127 36,129.238576 36,132 C36,134.761424 38.2385761,137 41,137 Z M41,137" id="Oval-4" cx="41" cy="132" r="5"></circle>
                    <circle d="M32,146 C34.7614239,146 37,143.761424 37,141 C37,138.238576 34.7614239,136 32,136 C29.2385761,136 27,138.238576 27,141 C27,143.761424 29.2385761,146 32,146 Z M32,146" id="Oval-4" cx="32" cy="141" r="5"></circle>
                    <circle d="M32,155 C34.7614239,155 37,152.761424 37,150 C37,147.238576 34.7614239,145 32,145 C29.2385761,145 27,147.238576 27,150 C27,152.761424 29.2385761,155 32,155 Z M32,155" id="Oval-4" cx="32" cy="150" r="5"></circle>
                    <circle d="M14,137 C16.7614239,137 19,134.761424 19,132 C19,129.238576 16.7614239,127 14,127 C11.2385761,127 9,129.238576 9,132 C9,134.761424 11.2385761,137 14,137 Z M14,137" id="Oval-4" cx="14" cy="132" r="5"></circle>
                    <circle d="M123,137 C125.761424,137 128,134.761424 128,132 C128,129.238576 125.761424,127 123,127 C120.238576,127 118,129.238576 118,132 C118,134.761424 120.238576,137 123,137 Z M123,137" id="Oval-4" cx="123" cy="132" r="5"></circle>
                    <circle d="M159,146 C161.761424,146 164,143.761424 164,141 C164,138.238576 161.761424,136 159,136 C156.238576,136 154,138.238576 154,141 C154,143.761424 156.238576,146 159,146 Z M159,146" id="Oval-4" cx="159" cy="141" r="5"></circle>
                    <circle d="M223,137 C225.761424,137 228,134.761424 228,132 C228,129.238576 225.761424,127 223,127 C220.238576,127 218,129.238576 218,132 C218,134.761424 220.238576,137 223,137 Z M223,137" id="Oval-4" cx="223" cy="132" r="5"></circle>
                    <circle d="M214,137 C216.761424,137 219,134.761424 219,132 C219,129.238576 216.761424,127 214,127 C211.238576,127 209,129.238576 209,132 C209,134.761424 211.238576,137 214,137 Z M214,137" id="Oval-4" cx="214" cy="132" r="5"></circle>
                    <circle d="M205,137 C207.761424,137 210,134.761424 210,132 C210,129.238576 207.761424,127 205,127 C202.238576,127 200,129.238576 200,132 C200,134.761424 202.238576,137 205,137 Z M205,137" id="Oval-4" cx="205" cy="132" r="5"></circle>
                    <circle d="M196,137 C198.761424,137 201,134.761424 201,132 C201,129.238576 198.761424,127 196,127 C193.238576,127 191,129.238576 191,132 C191,134.761424 193.238576,137 196,137 Z M196,137" id="Oval-4" cx="196" cy="132" r="5"></circle>
                    <circle d="M205,128 C207.761424,128 210,125.761424 210,123 C210,120.238576 207.761424,118 205,118 C202.238576,118 200,120.238576 200,123 C200,125.761424 202.238576,128 205,128 Z M205,128" id="Oval-4" cx="205" cy="123" r="5"></circle>
                    <circle d="M159,137 C161.761424,137 164,134.761424 164,132 C164,129.238576 161.761424,127 159,127 C156.238576,127 154,129.238576 154,132 C154,134.761424 156.238576,137 159,137 Z M159,137" id="Oval-4" cx="159" cy="132" r="5"></circle>
                    <circle d="M141,137 C143.761424,137 146,134.761424 146,132 C146,129.238576 143.761424,127 141,127 C138.238576,127 136,129.238576 136,132 C136,134.761424 138.238576,137 141,137 Z M141,137" id="Oval-4" cx="141" cy="132" r="5"></circle>
                    <circle d="M5,146 C7.76142389,146 10,143.761424 10,141 C10,138.238576 7.76142389,136 5,136 C2.23857611,136 0,138.238576 0,141 C0,143.761424 2.23857611,146 5,146 Z M5,146" id="Oval-4" cx="5" cy="141" r="5"></circle>
                    <circle d="M105,146 C107.761424,146 110,143.761424 110,141 C110,138.238576 107.761424,136 105,136 C102.238576,136 100,138.238576 100,141 C100,143.761424 102.238576,146 105,146 Z M105,146" id="Oval-4" cx="105" cy="141" r="5"></circle>
                    <circle d="M87,146 C89.7614239,146 92,143.761424 92,141 C92,138.238576 89.7614239,136 87,136 C84.2385761,136 82,138.238576 82,141 C82,143.761424 84.2385761,146 87,146 Z M87,146" id="Oval-4" cx="87" cy="141" r="5"></circle>
                    <circle d="M41,146 C43.7614239,146 46,143.761424 46,141 C46,138.238576 43.7614239,136 41,136 C38.2385761,136 36,138.238576 36,141 C36,143.761424 38.2385761,146 41,146 Z M41,146" id="Oval-4" cx="41" cy="141" r="5"></circle>
                    <circle d="M214,146 C216.761424,146 219,143.761424 219,141 C219,138.238576 216.761424,136 214,136 C211.238576,136 209,138.238576 209,141 C209,143.761424 211.238576,146 214,146 Z M214,146" id="Oval-4" cx="214" cy="141" r="5"></circle>
                    <circle d="M223,155 C225.761424,155 228,152.761424 228,150 C228,147.238576 225.761424,145 223,145 C220.238576,145 218,147.238576 218,150 C218,152.761424 220.238576,155 223,155 Z M223,155" id="Oval-4" cx="223" cy="150" r="5"></circle>
                    <circle d="M205,146 C207.761424,146 210,143.761424 210,141 C210,138.238576 207.761424,136 205,136 C202.238576,136 200,138.238576 200,141 C200,143.761424 202.238576,146 205,146 Z M205,146" id="Oval-4" cx="205" cy="141" r="5"></circle>
                    <circle d="M187,146 C189.761424,146 192,143.761424 192,141 C192,138.238576 189.761424,136 187,136 C184.238576,136 182,138.238576 182,141 C182,143.761424 184.238576,146 187,146 Z M187,146" id="Oval-4" cx="187" cy="141" r="5"></circle>
                    <circle d="M168,146 C170.761424,146 173,143.761424 173,141 C173,138.238576 170.761424,136 168,136 C165.238576,136 163,138.238576 163,141 C163,143.761424 165.238576,146 168,146 Z M168,146" id="Oval-4" cx="168" cy="141" r="5"></circle>
                    <circle d="M177,146 C179.761424,146 182,143.761424 182,141 C182,138.238576 179.761424,136 177,136 C174.238576,136 172,138.238576 172,141 C172,143.761424 174.238576,146 177,146 Z M177,146" id="Oval-4" cx="177" cy="141" r="5"></circle>
                    <circle d="M5,155 C7.76142389,155 10,152.761424 10,150 C10,147.238576 7.76142389,145 5,145 C2.23857611,145 0,147.238576 0,150 C0,152.761424 2.23857611,155 5,155 Z M5,155" id="Oval-4" cx="5" cy="150" r="5"></circle>
                    <circle d="M132,164 C134.761424,164 137,161.761424 137,159 C137,156.238576 134.761424,154 132,154 C129.238576,154 127,156.238576 127,159 C127,161.761424 129.238576,164 132,164 Z M132,164" id="Oval-4" cx="132" cy="159" r="5"></circle>
                    <circle d="M78,146 C80.7614239,146 83,143.761424 83,141 C83,138.238576 80.7614239,136 78,136 C75.2385761,136 73,138.238576 73,141 C73,143.761424 75.2385761,146 78,146 Z M78,146" id="Oval-4" cx="78" cy="141" r="5"></circle>
                    <circle d="M78,155 C80.7614239,155 83,152.761424 83,150 C83,147.238576 80.7614239,145 78,145 C75.2385761,145 73,147.238576 73,150 C73,152.761424 75.2385761,155 78,155 Z M78,155" id="Oval-4" cx="78" cy="150" r="5"></circle>
                    <circle d="M69,146 C71.7614239,146 74,143.761424 74,141 C74,138.238576 71.7614239,136 69,136 C66.2385761,136 64,138.238576 64,141 C64,143.761424 66.2385761,146 69,146 Z M69,146" id="Oval-4" cx="69" cy="141" r="5"></circle>
                    <circle d="M60,155 C62.7614239,155 65,152.761424 65,150 C65,147.238576 62.7614239,145 60,145 C57.2385761,145 55,147.238576 55,150 C55,152.761424 57.2385761,155 60,155 Z M60,155" id="Oval-4" cx="60" cy="150" r="5"></circle>
                    <circle d="M23,146 C25.7614239,146 28,143.761424 28,141 C28,138.238576 25.7614239,136 23,136 C20.2385761,136 18,138.238576 18,141 C18,143.761424 20.2385761,146 23,146 Z M23,146" id="Oval-4" cx="23" cy="141" r="5"></circle>
                    <circle d="M141,155 C143.761424,155 146,152.761424 146,150 C146,147.238576 143.761424,145 141,145 C138.238576,145 136,147.238576 136,150 C136,152.761424 138.238576,155 141,155 Z M141,155" id="Oval-4" cx="141" cy="150" r="5"></circle>
                    <circle d="M132,155 C134.761424,155 137,152.761424 137,150 C137,147.238576 134.761424,145 132,145 C129.238576,145 127,147.238576 127,150 C127,152.761424 129.238576,155 132,155 Z M132,155" id="Oval-4" cx="132" cy="150" r="5"></circle>
                    <circle d="M214,155 C216.761424,155 219,152.761424 219,150 C219,147.238576 216.761424,145 214,145 C211.238576,145 209,147.238576 209,150 C209,152.761424 211.238576,155 214,155 Z M214,155" id="Oval-4" cx="214" cy="150" r="5"></circle>
                    <circle d="M205,155 C207.761424,155 210,152.761424 210,150 C210,147.238576 207.761424,145 205,145 C202.238576,145 200,147.238576 200,150 C200,152.761424 202.238576,155 205,155 Z M205,155" id="Oval-4" cx="205" cy="150" r="5"></circle>
                    <circle d="M187,155 C189.761424,155 192,152.761424 192,150 C192,147.238576 189.761424,145 187,145 C184.238576,145 182,147.238576 182,150 C182,152.761424 184.238576,155 187,155 Z M187,155" id="Oval-4" cx="187" cy="150" r="5"></circle>
                    <circle d="M168,155 C170.761424,155 173,152.761424 173,150 C173,147.238576 170.761424,145 168,145 C165.238576,145 163,147.238576 163,150 C163,152.761424 165.238576,155 168,155 Z M168,155" id="Oval-4" cx="168" cy="150" r="5"></circle>
                    <circle d="M159,155 C161.761424,155 164,152.761424 164,150 C164,147.238576 161.761424,145 159,145 C156.238576,145 154,147.238576 154,150 C154,152.761424 156.238576,155 159,155 Z M159,155" id="Oval-4" cx="159" cy="150" r="5"></circle>
                    <circle d="M150,155 C152.761424,155 155,152.761424 155,150 C155,147.238576 152.761424,145 150,145 C147.238576,145 145,147.238576 145,150 C145,152.761424 147.238576,155 150,155 Z M150,155" id="Oval-4" cx="150" cy="150" r="5"></circle>
                    <circle d="M177,155 C179.761424,155 182,152.761424 182,150 C182,147.238576 179.761424,145 177,145 C174.238576,145 172,147.238576 172,150 C172,152.761424 174.238576,155 177,155 Z M177,155" id="Oval-4" cx="177" cy="150" r="5"></circle>
                    <circle d="M114,164 C116.761424,164 119,161.761424 119,159 C119,156.238576 116.761424,154 114,154 C111.238576,154 109,156.238576 109,159 C109,161.761424 111.238576,164 114,164 Z M114,164" id="Oval-4" cx="114" cy="159" r="5"></circle>
                    <circle d="M105,164 C107.761424,164 110,161.761424 110,159 C110,156.238576 107.761424,154 105,154 C102.238576,154 100,156.238576 100,159 C100,161.761424 102.238576,164 105,164 Z M105,164" id="Oval-4" cx="105" cy="159" r="5"></circle>
                    <circle d="M87,164 C89.7614239,164 92,161.761424 92,159 C92,156.238576 89.7614239,154 87,154 C84.2385761,154 82,156.238576 82,159 C82,161.761424 84.2385761,164 87,164 Z M87,164" id="Oval-4" cx="87" cy="159" r="5"></circle>
                    <circle d="M78,164 C80.7614239,164 83,161.761424 83,159 C83,156.238576 80.7614239,154 78,154 C75.2385761,154 73,156.238576 73,159 C73,161.761424 75.2385761,164 78,164 Z M78,164" id="Oval-4" cx="78" cy="159" r="5"></circle>
                    <circle d="M123,164 C125.761424,164 128,161.761424 128,159 C128,156.238576 125.761424,154 123,154 C120.238576,154 118,156.238576 118,159 C118,161.761424 120.238576,164 123,164 Z M123,164" id="Oval-4" cx="123" cy="159" r="5"></circle>
                    <circle d="M187,164 C189.761424,164 192,161.761424 192,159 C192,156.238576 189.761424,154 187,154 C184.238576,154 182,156.238576 182,159 C182,161.761424 184.238576,164 187,164 Z M187,164" id="Oval-4" cx="187" cy="159" r="5"></circle>
                    <circle d="M150,164 C152.761424,164 155,161.761424 155,159 C155,156.238576 152.761424,154 150,154 C147.238576,154 145,156.238576 145,159 C145,161.761424 147.238576,164 150,164 Z M150,164" id="Oval-4" cx="150" cy="159" r="5"></circle>
                    <circle d="M105,173 C107.761424,173 110,170.761424 110,168 C110,165.238576 107.761424,163 105,163 C102.238576,163 100,165.238576 100,168 C100,170.761424 102.238576,173 105,173 Z M105,173" id="Oval-4" cx="105" cy="168" r="5"></circle>
                    <circle d="M96,155 C98.7614239,155 101,152.761424 101,150 C101,147.238576 98.7614239,145 96,145 C93.2385761,145 91,147.238576 91,150 C91,152.761424 93.2385761,155 96,155 Z M96,155" id="Oval-4" cx="96" cy="150" r="5"></circle>
                    <circle d="M78,173 C80.7614239,173 83,170.761424 83,168 C83,165.238576 80.7614239,163 78,163 C75.2385761,163 73,165.238576 73,168 C73,170.761424 75.2385761,173 78,173 Z M78,173" id="Oval-4" cx="78" cy="168" r="5"></circle>
                    <circle d="M223,173 C225.761424,173 228,170.761424 228,168 C228,165.238576 225.761424,163 223,163 C220.238576,163 218,165.238576 218,168 C218,170.761424 220.238576,173 223,173 Z M223,173" id="Oval-4" cx="223" cy="168" r="5"></circle>
                    <circle d="M196,173 C198.761424,173 201,170.761424 201,168 C201,165.238576 198.761424,163 196,163 C193.238576,163 191,165.238576 191,168 C191,170.761424 193.238576,173 196,173 Z M196,173" id="Oval-4" cx="196" cy="168" r="5"></circle>
                    <circle d="M187,173 C189.761424,173 192,170.761424 192,168 C192,165.238576 189.761424,163 187,163 C184.238576,163 182,165.238576 182,168 C182,170.761424 184.238576,173 187,173 Z M187,173" id="Oval-4" cx="187" cy="168" r="5"></circle>
                    <circle d="M168,173 C170.761424,173 173,170.761424 173,168 C173,165.238576 170.761424,163 168,163 C165.238576,163 163,165.238576 163,168 C163,170.761424 165.238576,173 168,173 Z M168,173" id="Oval-4" cx="168" cy="168" r="5"></circle>
                    <circle d="M150,173 C152.761424,173 155,170.761424 155,168 C155,165.238576 152.761424,163 150,163 C147.238576,163 145,165.238576 145,168 C145,170.761424 147.238576,173 150,173 Z M150,173" id="Oval-4" cx="150" cy="168" r="5"></circle>
                    <circle d="M96,164 C98.7614239,164 101,161.761424 101,159 C101,156.238576 98.7614239,154 96,154 C93.2385761,154 91,156.238576 91,159 C91,161.761424 93.2385761,164 96,164 Z M96,164" id="Oval-4" cx="96" cy="159" r="5"></circle>
                    <circle d="M78,182 C80.7614239,182 83,179.761424 83,177 C83,174.238576 80.7614239,172 78,172 C75.2385761,172 73,174.238576 73,177 C73,179.761424 75.2385761,182 78,182 Z M78,182" id="Oval-4" cx="78" cy="177" r="5"></circle>
                    <circle d="M114,182 C116.761424,182 119,179.761424 119,177 C119,174.238576 116.761424,172 114,172 C111.238576,172 109,174.238576 109,177 C109,179.761424 111.238576,182 114,182 Z M114,182" id="Oval-4" cx="114" cy="177" r="5"></circle>
                    <circle d="M132,182 C134.761424,182 137,179.761424 137,177 C137,174.238576 134.761424,172 132,172 C129.238576,172 127,174.238576 127,177 C127,179.761424 129.238576,182 132,182 Z M132,182" id="Oval-4" cx="132" cy="177" r="5"></circle>
                    <circle d="M223,191 C225.761424,191 228,188.761424 228,186 C228,183.238576 225.761424,181 223,181 C220.238576,181 218,183.238576 218,186 C218,188.761424 220.238576,191 223,191 Z M223,191" id="Oval-4" cx="223" cy="186" r="5"></circle>
                    <circle d="M214,182 C216.761424,182 219,179.761424 219,177 C219,174.238576 216.761424,172 214,172 C211.238576,172 209,174.238576 209,177 C209,179.761424 211.238576,182 214,182 Z M214,182" id="Oval-4" cx="214" cy="177" r="5"></circle>
                    <circle d="M187,182 C189.761424,182 192,179.761424 192,177 C192,174.238576 189.761424,172 187,172 C184.238576,172 182,174.238576 182,177 C182,179.761424 184.238576,182 187,182 Z M187,182" id="Oval-4" cx="187" cy="177" r="5"></circle>
                    <circle d="M150,182 C152.761424,182 155,179.761424 155,177 C155,174.238576 152.761424,172 150,172 C147.238576,172 145,174.238576 145,177 C145,179.761424 147.238576,182 150,182 Z M150,182" id="Oval-4" cx="150" cy="177" r="5"></circle>
                    <circle d="M114,191 C116.761424,191 119,188.761424 119,186 C119,183.238576 116.761424,181 114,181 C111.238576,181 109,183.238576 109,186 C109,188.761424 111.238576,191 114,191 Z M114,191" id="Oval-4" cx="114" cy="186" r="5"></circle>
                    <circle d="M123,191 C125.761424,191 128,188.761424 128,186 C128,183.238576 125.761424,181 123,181 C120.238576,181 118,183.238576 118,186 C118,188.761424 120.238576,191 123,191 Z M123,191" id="Oval-4" cx="123" cy="186" r="5"></circle>
                    <circle d="M96,191 C98.7614239,191 101,188.761424 101,186 C101,183.238576 98.7614239,181 96,181 C93.2385761,181 91,183.238576 91,186 C91,188.761424 93.2385761,191 96,191 Z M96,191" id="Oval-4" cx="96" cy="186" r="5"></circle>
                    <circle d="M78,191 C80.7614239,191 83,188.761424 83,186 C83,183.238576 80.7614239,181 78,181 C75.2385761,181 73,183.238576 73,186 C73,188.761424 75.2385761,191 78,191 Z M78,191" id="Oval-4" cx="78" cy="186" r="5"></circle>
                    <circle d="M132,191 C134.761424,191 137,188.761424 137,186 C137,183.238576 134.761424,181 132,181 C129.238576,181 127,183.238576 127,186 C127,188.761424 129.238576,191 132,191 Z M132,191" id="Oval-4" cx="132" cy="186" r="5"></circle>
                    <circle d="M196,191 C198.761424,191 201,188.761424 201,186 C201,183.238576 198.761424,181 196,181 C193.238576,181 191,183.238576 191,186 C191,188.761424 193.238576,191 196,191 Z M196,191" id="Oval-4" cx="196" cy="186" r="5"></circle>
                    <circle d="M187,191 C189.761424,191 192,188.761424 192,186 C192,183.238576 189.761424,181 187,181 C184.238576,181 182,183.238576 182,186 C182,188.761424 184.238576,191 187,191 Z M187,191" id="Oval-4" cx="187" cy="186" r="5"></circle>
                    <circle d="M168,191 C170.761424,191 173,188.761424 173,186 C173,183.238576 170.761424,181 168,181 C165.238576,181 163,183.238576 163,186 C163,188.761424 165.238576,191 168,191 Z M168,191" id="Oval-4" cx="168" cy="186" r="5"></circle>
                    <circle d="M159,191 C161.761424,191 164,188.761424 164,186 C164,183.238576 161.761424,181 159,181 C156.238576,181 154,183.238576 154,186 C154,188.761424 156.238576,191 159,191 Z M159,191" id="Oval-4" cx="159" cy="186" r="5"></circle>
                    <circle d="M150,191 C152.761424,191 155,188.761424 155,186 C155,183.238576 152.761424,181 150,181 C147.238576,181 145,183.238576 145,186 C145,188.761424 147.238576,191 150,191 Z M150,191" id="Oval-4" cx="150" cy="186" r="5"></circle>
                    <circle d="M141,191 C143.761424,191 146,188.761424 146,186 C146,183.238576 143.761424,181 141,181 C138.238576,181 136,183.238576 136,186 C136,188.761424 138.238576,191 141,191 Z M141,191" id="Oval-4" cx="141" cy="186" r="5"></circle>
                    <circle d="M177,191 C179.761424,191 182,188.761424 182,186 C182,183.238576 179.761424,181 177,181 C174.238576,181 172,183.238576 172,186 C172,188.761424 174.238576,191 177,191 Z M177,191" id="Oval-4" cx="177" cy="186" r="5"></circle>
                    <circle d="M141,182 C143.761424,182 146,179.761424 146,177 C146,174.238576 143.761424,172 141,172 C138.238576,172 136,174.238576 136,177 C136,179.761424 138.238576,182 141,182 Z M141,182" id="Oval-4" cx="141" cy="177" r="5"></circle>
                    <circle d="M114,210 C116.761424,210 119,207.761424 119,205 C119,202.238576 116.761424,200 114,200 C111.238576,200 109,202.238576 109,205 C109,207.761424 111.238576,210 114,210 Z M114,210" id="Oval-4" cx="114" cy="205" r="5"></circle>
                    <circle d="M78,201 C80.7614239,201 83,198.761424 83,196 C83,193.238576 80.7614239,191 78,191 C75.2385761,191 73,193.238576 73,196 C73,198.761424 75.2385761,201 78,201 Z M78,201" id="Oval-4" cx="78" cy="196" r="5"></circle>
                    <circle d="M132,201 C134.761424,201 137,198.761424 137,196 C137,193.238576 134.761424,191 132,191 C129.238576,191 127,193.238576 127,196 C127,198.761424 129.238576,201 132,201 Z M132,201" id="Oval-4" cx="132" cy="196" r="5"></circle>
                    <circle d="M223,201 C225.761424,201 228,198.761424 228,196 C228,193.238576 225.761424,191 223,191 C220.238576,191 218,193.238576 218,196 C218,198.761424 220.238576,201 223,201 Z M223,201" id="Oval-4" cx="223" cy="196" r="5"></circle>
                    <circle d="M214,201 C216.761424,201 219,198.761424 219,196 C219,193.238576 216.761424,191 214,191 C211.238576,191 209,193.238576 209,196 C209,198.761424 211.238576,201 214,201 Z M214,201" id="Oval-4" cx="214" cy="196" r="5"></circle>
                    <circle d="M196,201 C198.761424,201 201,198.761424 201,196 C201,193.238576 198.761424,191 196,191 C193.238576,191 191,193.238576 191,196 C191,198.761424 193.238576,201 196,201 Z M196,201" id="Oval-4" cx="196" cy="196" r="5"></circle>
                    <circle d="M168,201 C170.761424,201 173,198.761424 173,196 C173,193.238576 170.761424,191 168,191 C165.238576,191 163,193.238576 163,196 C163,198.761424 165.238576,201 168,201 Z M168,201" id="Oval-4" cx="168" cy="196" r="5"></circle>
                    <circle d="M150,201 C152.761424,201 155,198.761424 155,196 C155,193.238576 152.761424,191 150,191 C147.238576,191 145,193.238576 145,196 C145,198.761424 147.238576,201 150,201 Z M150,201" id="Oval-4" cx="150" cy="196" r="5"></circle>
                    <circle d="M159,201 C161.761424,201 164,198.761424 164,196 C164,193.238576 161.761424,191 159,191 C156.238576,191 154,193.238576 154,196 C154,198.761424 156.238576,201 159,201 Z M159,201" id="Oval-4" cx="159" cy="196" r="5"></circle>
                    <circle d="M168,228 C170.761424,228 173,225.761424 173,223 C173,220.238576 170.761424,218 168,218 C165.238576,218 163,220.238576 163,223 C163,225.761424 165.238576,228 168,228 Z M168,228" id="Oval-4" cx="168" cy="223" r="5"></circle>
                    <circle d="M96,210 C98.7614239,210 101,207.761424 101,205 C101,202.238576 98.7614239,200 96,200 C93.2385761,200 91,202.238576 91,205 C91,207.761424 93.2385761,210 96,210 Z M96,210" id="Oval-4" cx="96" cy="205" r="5"></circle>
                    <circle d="M87,210 C89.7614239,210 92,207.761424 92,205 C92,202.238576 89.7614239,200 87,200 C84.2385761,200 82,202.238576 82,205 C82,207.761424 84.2385761,210 87,210 Z M87,210" id="Oval-4" cx="87" cy="205" r="5"></circle>
                    <circle d="M132,228 C134.761424,228 137,225.761424 137,223 C137,220.238576 134.761424,218 132,218 C129.238576,218 127,220.238576 127,223 C127,225.761424 129.238576,228 132,228 Z M132,228" id="Oval-4" cx="132" cy="223" r="5"></circle>
                    <circle d="M132,210 C134.761424,210 137,207.761424 137,205 C137,202.238576 134.761424,200 132,200 C129.238576,200 127,202.238576 127,205 C127,207.761424 129.238576,210 132,210 Z M132,210" id="Oval-4" cx="132" cy="205" r="5"></circle>
                    <circle d="M223,210 C225.761424,210 228,207.761424 228,205 C228,202.238576 225.761424,200 223,200 C220.238576,200 218,202.238576 218,205 C218,207.761424 220.238576,210 223,210 Z M223,210" id="Oval-4" cx="223" cy="205" r="5"></circle>
                    <circle d="M214,210 C216.761424,210 219,207.761424 219,205 C219,202.238576 216.761424,200 214,200 C211.238576,200 209,202.238576 209,205 C209,207.761424 211.238576,210 214,210 Z M214,210" id="Oval-4" cx="214" cy="205" r="5"></circle>
                    <circle d="M205,210 C207.761424,210 210,207.761424 210,205 C210,202.238576 207.761424,200 205,200 C202.238576,200 200,202.238576 200,205 C200,207.761424 202.238576,210 205,210 Z M205,210" id="Oval-4" cx="205" cy="205" r="5"></circle>
                    <circle d="M187,210 C189.761424,210 192,207.761424 192,205 C192,202.238576 189.761424,200 187,200 C184.238576,200 182,202.238576 182,205 C182,207.761424 184.238576,210 187,210 Z M187,210" id="Oval-4" cx="187" cy="205" r="5"></circle>
                    <circle d="M150,210 C152.761424,210 155,207.761424 155,205 C155,202.238576 152.761424,200 150,200 C147.238576,200 145,202.238576 145,205 C145,207.761424 147.238576,210 150,210 Z M150,210" id="Oval-4" cx="150" cy="205" r="5"></circle>
                    <circle d="M177,210 C179.761424,210 182,207.761424 182,205 C182,202.238576 179.761424,200 177,200 C174.238576,200 172,202.238576 172,205 C172,207.761424 174.238576,210 177,210 Z M177,210" id="Oval-4" cx="177" cy="205" r="5"></circle>
                    <circle d="M87,219 C89.7614239,219 92,216.761424 92,214 C92,211.238576 89.7614239,209 87,209 C84.2385761,209 82,211.238576 82,214 C82,216.761424 84.2385761,219 87,219 Z M87,219" id="Oval-4" cx="87" cy="214" r="5"></circle>
                    <circle d="M132,219 C134.761424,219 137,216.761424 137,214 C137,211.238576 134.761424,209 132,209 C129.238576,209 127,211.238576 127,214 C127,216.761424 129.238576,219 132,219 Z M132,219" id="Oval-4" cx="132" cy="214" r="5"></circle>
                    <circle d="M223,219 C225.761424,219 228,216.761424 228,214 C228,211.238576 225.761424,209 223,209 C220.238576,209 218,211.238576 218,214 C218,216.761424 220.238576,219 223,219 Z M223,219" id="Oval-4" cx="223" cy="214" r="5"></circle>
                    <circle d="M214,219 C216.761424,219 219,216.761424 219,214 C219,211.238576 216.761424,209 214,209 C211.238576,209 209,211.238576 209,214 C209,216.761424 211.238576,219 214,219 Z M214,219" id="Oval-4" cx="214" cy="214" r="5"></circle>
                    <circle d="M205,219 C207.761424,219 210,216.761424 210,214 C210,211.238576 207.761424,209 205,209 C202.238576,209 200,211.238576 200,214 C200,216.761424 202.238576,219 205,219 Z M205,219" id="Oval-4" cx="205" cy="214" r="5"></circle>
                    <circle d="M187,219 C189.761424,219 192,216.761424 192,214 C192,211.238576 189.761424,209 187,209 C184.238576,209 182,211.238576 182,214 C182,216.761424 184.238576,219 187,219 Z M187,219" id="Oval-4" cx="187" cy="214" r="5"></circle>
                    <circle d="M159,219 C161.761424,219 164,216.761424 164,214 C164,211.238576 161.761424,209 159,209 C156.238576,209 154,211.238576 154,214 C154,216.761424 156.238576,219 159,219 Z M159,219" id="Oval-4" cx="159" cy="214" r="5"></circle>
                    <circle d="M177,219 C179.761424,219 182,216.761424 182,214 C182,211.238576 179.761424,209 177,209 C174.238576,209 172,211.238576 172,214 C172,216.761424 174.238576,219 177,219 Z M177,219" id="Oval-4" cx="177" cy="214" r="5"></circle>
                    <circle d="M123,228 C125.761424,228 128,225.761424 128,223 C128,220.238576 125.761424,218 123,218 C120.238576,218 118,220.238576 118,223 C118,225.761424 120.238576,228 123,228 Z M123,228" id="Oval-4" cx="123" cy="223" r="5"></circle>
                    <circle d="M87,228 C89.7614239,228 92,225.761424 92,223 C92,220.238576 89.7614239,218 87,218 C84.2385761,218 82,220.238576 82,223 C82,225.761424 84.2385761,228 87,228 Z M87,228" id="Oval-4" cx="87" cy="223" r="5"></circle>
                    <circle d="M78,228 C80.7614239,228 83,225.761424 83,223 C83,220.238576 80.7614239,218 78,218 C75.2385761,218 73,220.238576 73,223 C73,225.761424 75.2385761,228 78,228 Z M78,228" id="Oval-4" cx="78" cy="223" r="5"></circle>
                    <circle d="M223,228 C225.761424,228 228,225.761424 228,223 C228,220.238576 225.761424,218 223,218 C220.238576,218 218,220.238576 218,223 C218,225.761424 220.238576,228 223,228 Z M223,228" id="Oval-4" cx="223" cy="223" r="5"></circle>
                    <circle d="M196,228 C198.761424,228 201,225.761424 201,223 C201,220.238576 198.761424,218 196,218 C193.238576,218 191,220.238576 191,223 C191,225.761424 193.238576,228 196,228 Z M196,228" id="Oval-4" cx="196" cy="223" r="5"></circle>
                    <circle d="M159,228 C161.761424,228 164,225.761424 164,223 C164,220.238576 161.761424,218 159,218 C156.238576,218 154,220.238576 154,223 C154,225.761424 156.238576,228 159,228 Z M159,228" id="Oval-4" cx="159" cy="223" r="5"></circle>
                    <circle d="M150,228 C152.761424,228 155,225.761424 155,223 C155,220.238576 152.761424,218 150,218 C147.238576,218 145,220.238576 145,223 C145,225.761424 147.238576,228 150,228 Z M150,228" id="Oval-4" cx="150" cy="223" r="5"></circle>
                    <circle d="M168,219 C170.761424,219 173,216.761424 173,214 C173,211.238576 170.761424,209 168,209 C165.238576,209 163,211.238576 163,214 C163,216.761424 165.238576,219 168,219 Z M168,219" id="Oval-4" cx="168" cy="214" r="5"></circle>
                    <circle d="M114,46 C116.761424,46 119,43.7614239 119,41 C119,38.2385761 116.761424,36 114,36 C111.238576,36 109,38.2385761 109,41 C109,43.7614239 111.238576,46 114,46 Z M114,46" id="Oval-4" cx="114" cy="41" r="5"></circle>
                    <circle d="M123,46 C125.761424,46 128,43.7614239 128,41 C128,38.2385761 125.761424,36 123,36 C120.238576,36 118,38.2385761 118,41 C118,43.7614239 120.238576,46 123,46 Z M123,46" id="Oval-4" cx="123" cy="41" r="5"></circle>
                    <circle d="M132,46 C134.761424,46 137,43.7614239 137,41 C137,38.2385761 134.761424,36 132,36 C129.238576,36 127,38.2385761 127,41 C127,43.7614239 129.238576,46 132,46 Z M132,46" id="Oval-4" cx="132" cy="41" r="5"></circle>
                    <circle d="M123,56 C125.761424,56 128,53.7614239 128,51 C128,48.2385761 125.761424,46 123,46 C120.238576,46 118,48.2385761 118,51 C118,53.7614239 120.238576,56 123,56 Z M123,56" id="Oval-4" cx="123" cy="51" r="5"></circle>
                    <circle d="M114,56 C116.761424,56 119,53.7614239 119,51 C119,48.2385761 116.761424,46 114,46 C111.238576,46 109,48.2385761 109,51 C109,53.7614239 111.238576,56 114,56 Z M114,56" id="Oval-4" cx="114" cy="51" r="5"></circle>
                    <circle d="M96,56 C98.7614239,56 101,53.7614239 101,51 C101,48.2385761 98.7614239,46 96,46 C93.2385761,46 91,48.2385761 91,51 C91,53.7614239 93.2385761,56 96,56 Z M96,56" id="Oval-4" cx="96" cy="51" r="5"></circle>
                    <circle d="M96,65 C98.7614239,65 101,62.7614239 101,60 C101,57.2385761 98.7614239,55 96,55 C93.2385761,55 91,57.2385761 91,60 C91,62.7614239 93.2385761,65 96,65 Z M96,65" id="Oval-4" cx="96" cy="60" r="5"></circle>
                    <circle d="M114,65 C116.761424,65 119,62.7614239 119,60 C119,57.2385761 116.761424,55 114,55 C111.238576,55 109,57.2385761 109,60 C109,62.7614239 111.238576,65 114,65 Z M114,65" id="Oval-4" cx="114" cy="60" r="5"></circle>
                    <circle d="M132,65 C134.761424,65 137,62.7614239 137,60 C137,57.2385761 134.761424,55 132,55 C129.238576,55 127,57.2385761 127,60 C127,62.7614239 129.238576,65 132,65 Z M132,65" id="Oval-4" cx="132" cy="60" r="5"></circle>
                    <circle d="M96,19 C98.7614239,19 101,16.7614239 101,14 C101,11.2385761 98.7614239,9 96,9 C93.2385761,9 91,11.2385761 91,14 C91,16.7614239 93.2385761,19 96,19 Z M96,19" id="Oval-4" cx="96" cy="14" r="5"></circle>
                    <circle d="M105,10 C107.761424,10 110,7.76142389 110,5 C110,2.23857611 107.761424,0 105,0 C102.238576,0 100,2.23857611 100,5 C100,7.76142389 102.238576,10 105,10 Z M105,10" id="Oval-4" cx="105" cy="5" r="5"></circle>
                    <circle d="M78,28 C80.7614239,28 83,25.7614239 83,23 C83,20.2385761 80.7614239,18 78,18 C75.2385761,18 73,20.2385761 73,23 C73,25.7614239 75.2385761,28 78,28 Z M78,28" id="Oval-4" cx="78" cy="23" r="5"></circle>
                    <circle d="M96,28 C98.7614239,28 101,25.7614239 101,23 C101,20.2385761 98.7614239,18 96,18 C93.2385761,18 91,20.2385761 91,23 C91,25.7614239 93.2385761,28 96,28 Z M96,28" id="Oval-4" cx="96" cy="23" r="5"></circle>
                    <circle d="M105,46 C107.761424,46 110,43.7614239 110,41 C110,38.2385761 107.761424,36 105,36 C102.238576,36 100,38.2385761 100,41 C100,43.7614239 102.238576,46 105,46 Z M105,46" id="Oval-4" cx="105" cy="41" r="5"></circle>
                    <circle d="M78,46 C80.7614239,46 83,43.7614239 83,41 C83,38.2385761 80.7614239,36 78,36 C75.2385761,36 73,38.2385761 73,41 C73,43.7614239 75.2385761,46 78,46 Z M78,46" id="Oval-4" cx="78" cy="41" r="5"></circle>
                    <circle d="M123,19 C125.761424,19 128,16.7614239 128,14 C128,11.2385761 125.761424,9 123,9 C120.238576,9 118,11.2385761 118,14 C118,16.7614239 120.238576,19 123,19 Z M123,19" id="Oval-4" cx="123" cy="14" r="5"></circle>
                    <circle d="M150,19 C152.761424,19 155,16.7614239 155,14 C155,11.2385761 152.761424,9 150,9 C147.238576,9 145,11.2385761 145,14 C145,16.7614239 147.238576,19 150,19 Z M150,19" id="Oval-4" cx="150" cy="14" r="5"></circle>
                    <circle d="M123,28 C125.761424,28 128,25.7614239 128,23 C128,20.2385761 125.761424,18 123,18 C120.238576,18 118,20.2385761 118,23 C118,25.7614239 120.238576,28 123,28 Z M123,28" id="Oval-4" cx="123" cy="23" r="5"></circle>
                    <circle d="M132,28 C134.761424,28 137,25.7614239 137,23 C137,20.2385761 134.761424,18 132,18 C129.238576,18 127,20.2385761 127,23 C127,25.7614239 129.238576,28 132,28 Z M132,28" id="Oval-4" cx="132" cy="23" r="5"></circle>
                    <circle d="M114,28 C116.761424,28 119,25.7614239 119,23 C119,20.2385761 116.761424,18 114,18 C111.238576,18 109,20.2385761 109,23 C109,25.7614239 111.238576,28 114,28 Z M114,28" id="Oval-4" cx="114" cy="23" r="5"></circle>
                    <circle d="M78,10 C80.7614239,10 83,7.76142389 83,5 C83,2.23857611 80.7614239,0 78,0 C75.2385761,0 73,2.23857611 73,5 C73,7.76142389 75.2385761,10 78,10 Z M78,10" id="Oval-4" cx="78" cy="5" r="5"></circle>
                </g>
                <g id="Outline-+-SQRL" transform="translate(79.000000, 83.000000)" sketch:type="MSShapeGroup">
                    <path d="M72.4009414,25.4562648 C70.0720692,20.0403265 71.5345272,11.9420085 71.7027406,10.091287 C71.8732583,8.24131803 69.0420502,6.98893874 65.2453433,9.74582896 C51.0163335,18.7751525 58.9407974,37.4231102 56.846195,45.5914229 C54.7500564,53.7627462 50.8035705,55.4998203 50.8035705,55.4998203 C50.8035705,55.4998203 52.5509927,52.6661617 53.9850311,50.0537768 C55.4198376,47.4361234 57.9683857,42.6689537 53.1370513,33.378467 C48.3064849,24.0902381 33.5052423,22.4630482 30.6717299,21.9828691 C27.8405218,21.5041953 26.7482869,19.6467001 26.4418159,18.1000418 C25.9348715,14.3323671 24.5776428,11.9066348 22.9938254,10.3441712 C23.4147429,8.94578138 23.800328,6.84067028 23.698171,5.13520666 C23.5384067,2.41519539 21.3040105,0.66683176 21.3040105,0.66683176 C18.6494649,2.72979548 18.0803045,5.59732257 18.1056517,7.75361263 C17.9474236,7.72049684 17.7930359,7.68963893 17.6447931,7.66480208 C17.7891954,6.573486 17.8514114,5.38809094 17.7431096,4.35623276 C17.4527687,1.64374782 15.1346498,0 15.1346498,0 C12.2527473,2.4603533 12.0730124,5.8276279 12.3464552,8.01552849 C11.8279892,8.21572855 11.2450031,8.46936546 10.5721495,8.81030766 C6.4843336,10.8702608 4.06636206,14.1411986 2.35350421,19.3855368 C1.91492043,20.7304898 0.662153089,22.5578798 1.20135767,23.3037379 C1.81890821,24.1594803 5.89443457,25.517228 8.99831735,23.5423222 C9.08280809,23.4888853 4.76917145,26.2382492 4.76917145,26.2382492 C7.20557733,27.1007653 14.4894478,27.8165181 14.4894478,27.8165181 C14.4894478,27.8165181 14.4809987,29.149429 13.8258113,29.8960397 C13.1721602,30.6471662 10.7534206,30.400303 9.86857203,30.1647293 C8.98295539,29.9299081 7.69331937,29.1419027 2.7221911,28.9687973 C-1.272685,28.8295605 -0.276462291,33.621567 1.93028238,33.4778144 C5.6839758,33.2399827 6.73473345,33.5816775 8.77096043,35.908815 C10.1389424,37.4757944 14.0854284,42.6855116 19.4075773,41.6732219 C21.4215294,41.2893796 22.7057888,39.2994212 24.7881016,38.1207998 C28.203064,36.1850309 31.734009,35.6310939 31.734009,35.6310939 C24.5960772,37.3869838 20.5558833,40.7602795 20.3415841,47.3006497 C20.1295891,53.8395146 24.5991496,56.7589733 24.5991496,56.7589733 L19.4905318,56.8500418 C16.024875,56.8485365 13.6307145,61.8557958 19.1441198,61.8836431 C24.6598293,61.9137484 31.8561366,62.1259906 44.6618613,61.8896642 C57.4629775,61.6495747 64.0156189,59.0597687 69.89003,51.2226139 C75.7652093,43.3809434 74.1130311,29.6318659 72.4009414,25.4562648 C72.4009414,25.4562648 74.1130311,29.6318659 72.4009414,25.4562648 L72.4009414,25.4562648 L72.4009414,25.4562648 Z M72.4009414,25.4562648" id="Outline" stroke="#FFFFFF" stroke-width="8" stroke-linejoin="round" fill="#FFFFFF"></path>
                    <path d="M72.4009414,25.4562648 C70.0720692,20.0403265 71.5345272,11.9420085 71.7027406,10.091287 C71.8732583,8.24131803 69.0420502,6.98893874 65.2453433,9.74582896 C51.0163335,18.7751525 58.9407974,37.4231102 56.846195,45.5914229 C54.7500564,53.7627462 50.8035705,55.4998203 50.8035705,55.4998203 C50.8035705,55.4998203 52.5509927,52.6661617 53.9850311,50.0537768 C55.4198376,47.4361234 57.9683857,42.6689537 53.1370513,33.378467 C48.3064849,24.0902381 33.5052423,22.4630482 30.6717299,21.9828691 C27.8405218,21.5041953 26.7482869,19.6467001 26.4418159,18.1000418 C25.9348715,14.3323671 24.5776428,11.9066348 22.9938254,10.3441712 C23.4147429,8.94578138 23.800328,6.84067028 23.698171,5.13520666 C23.5384067,2.41519539 21.3040105,0.66683176 21.3040105,0.66683176 C18.6494649,2.72979548 18.0803045,5.59732257 18.1056517,7.75361263 C17.9474236,7.72049684 17.7930359,7.68963893 17.6447931,7.66480208 C17.7891954,6.573486 17.8514114,5.38809094 17.7431096,4.35623276 C17.4527687,1.64374782 15.1346498,0 15.1346498,0 C12.2527473,2.4603533 12.0730124,5.8276279 12.3464552,8.01552849 C11.8279892,8.21572855 11.2450031,8.46936546 10.5721495,8.81030766 C6.4843336,10.8702608 4.06636206,14.1411986 2.35350421,19.3855368 C1.91492043,20.7304898 0.662153089,22.5578798 1.20135767,23.3037379 C1.81890821,24.1594803 5.89443457,25.517228 8.99831735,23.5423222 C9.08280809,23.4888853 4.76917145,26.2382492 4.76917145,26.2382492 C7.20557733,27.1007653 14.4894478,27.8165181 14.4894478,27.8165181 C14.4894478,27.8165181 14.4809987,29.149429 13.8258113,29.8960397 C13.1721602,30.6471662 10.7534206,30.400303 9.86857203,30.1647293 C8.98295539,29.9299081 7.69331937,29.1419027 2.7221911,28.9687973 C-1.272685,28.8295605 -0.276462291,33.621567 1.93028238,33.4778144 C5.6839758,33.2399827 6.73473345,33.5816775 8.77096043,35.908815 C10.1389424,37.4757944 14.0854284,42.6855116 19.4075773,41.6732219 C21.4215294,41.2893796 22.7057888,39.2994212 24.7881016,38.1207998 C28.203064,36.1850309 31.734009,35.6310939 31.734009,35.6310939 C24.5960772,37.3869838 20.5558833,40.7602795 20.3415841,47.3006497 C20.1295891,53.8395146 24.5991496,56.7589733 24.5991496,56.7589733 L19.4905318,56.8500418 C16.024875,56.8485365 13.6307145,61.8557958 19.1441198,61.8836431 C24.6598293,61.9137484 31.8561366,62.1259906 44.6618613,61.8896642 C57.4629775,61.6495747 64.0156189,59.0597687 69.89003,51.2226139 C75.7652093,43.3809434 74.1130311,29.6318659 72.4009414,25.4562648 C72.4009414,25.4562648 74.1130311,29.6318659 72.4009414,25.4562648 L72.4009414,25.4562648 L72.4009414,25.4562648 Z M10.4931626,18.9999967 C9.65984558,18.9948744 8.99490136,18.3229942 9.00002946,17.4923214 C9.00430288,16.6633561 9.67950331,15.9965982 10.5102562,16.0000131 C11.3384451,16.0068428 12.0050987,16.6812843 11.9999706,17.5076884 C11.9956972,18.3349463 11.3204968,19.0017042 10.4931626,18.9999967 C10.4931626,18.9999967 11.3204968,19.0017042 10.4931626,18.9999967 L10.4931626,18.9999967 L10.4931626,18.9999967 Z M10.4931626,18.9999967" id="SQRL" fill="#000000"></path>
                </g>
            </g>
        </g>
    </g>
</svg>